# xmcd
#
# Track frame offsets:
#	150
#	16437
#	36297
#	51220
#	66602
#	80887
#	94520
#	112435
#	130905
#	147185
#	167067
#	181987
#	197375
#	211650
#	225300
#	243250
#
# Disc length: 3490 seconds
#
# Revision: 0
# Processed by: cddbd v1.5.1PL2 Copyright (c) Steve Scherf et al.
# Submitted via: audiograbber 1.83.01
#
DISCID=e00da010
DTITLE=McGraw, Tim - Sc2111
DYEAR=1900
DGENRE=Karaoke
TTITLE0=Can't Be Really Gone
TTITLE1=Don't Take The Girl
TTITLE2=Down On The Farm
TTITLE3=I Like It I Love It
TTITLE4=Indian Outlaw
TTITLE5=Refried Dreams
TTITLE6=All I Want Is A Life
TTITLE7=Not A Moment Too Soon
TTITLE8=Can't Be Really Gone (Vocal)
TTITLE9=Don't Take The Girl (Vocal)
TTITLE10=Down On The Farm (Vocal)
TTITLE11=I Like It I Love It (Vocal)
TTITLE12=Indian Outlaw (Vocal)
TTITLE13=Refried Dreams (Vocal)
TTITLE14=All I Want Is A Life (Vocal)
TTITLE15=Not A Moment Too Soon (Vocal)
EXTD=
EXTT0=
EXTT1=
EXTT2=
EXTT3=
EXTT4=
EXTT5=
EXTT6=
EXTT7=
EXTT8=
EXTT9=
EXTT10=
EXTT11=
EXTT12=
EXTT13=
EXTT14=
EXTT15=
PLAYORDER=
